<svg width="48" height="48" viewBox="0 0 48 48" fill="none" xmlns="http://www.w3.org/2000/svg">
<g clip-path="url(#clip0_158_962)">
<rect width="48" height="48" fill="#121318"/>
<path d="M45 30.0001C45.003 28.4981 44.6301 27.0192 43.9152 25.6982C43.2003 24.3772 42.1661 23.2562 40.907 22.4373C39.6478 21.6183 38.2037 21.1276 36.7063 21.0097C35.2089 20.8918 33.7059 21.1506 32.3341 21.7624C30.9623 22.3742 29.7655 23.3196 28.8527 24.5124C27.9398 25.7053 27.3401 27.1076 27.108 28.5916C26.876 30.0756 27.0191 31.5941 27.5242 33.0086C28.0293 34.4231 28.8804 35.6888 30 36.6901V48.0001L36 45.1591L42 48.0001V36.6901C42.943 35.8492 43.6977 34.8185 44.2147 33.6656C44.7317 32.5127 44.9993 31.2636 45 30.0001ZM39 43.2601L36 41.8396L33 43.2601V38.4751C34.9387 39.1753 37.0613 39.1753 39 38.4751V43.2601ZM36 36.0001C34.8133 36.0001 33.6533 35.6482 32.6666 34.9889C31.6799 34.3297 30.9108 33.3926 30.4567 32.2962C30.0026 31.1999 29.8838 29.9935 30.1153 28.8296C30.3468 27.6657 30.9182 26.5966 31.7573 25.7575C32.5965 24.9184 33.6656 24.3469 34.8294 24.1154C35.9933 23.8839 37.1997 24.0027 38.2961 24.4568C39.3924 24.911 40.3295 25.68 40.9888 26.6667C41.6481 27.6534 42 28.8134 42 30.0001C41.998 31.5908 41.3652 33.1158 40.2404 34.2406C39.1156 35.3654 37.5907 35.9981 36 36.0001Z" fill="#05EEF4"/>
<path d="M37.5 7.5H33V6C32.9976 5.20508 32.6808 4.4434 32.1187 3.8813C31.5566 3.31921 30.7949 3.00237 30 3H18C17.2051 3.00237 16.4434 3.31921 15.8813 3.8813C15.3192 4.4434 15.0024 5.20508 15 6V7.5H10.5C9.70508 7.50237 8.9434 7.81921 8.3813 8.3813C7.81921 8.9434 7.50237 9.70508 7.5 10.5V42C7.50237 42.7949 7.81921 43.5566 8.3813 44.1187C8.9434 44.6808 9.70508 44.9976 10.5 45H24V42H10.5V10.5H15V15H33V10.5H37.5V18H40.5V10.5C40.4976 9.70508 40.1808 8.9434 39.6187 8.3813C39.0566 7.81921 38.2949 7.50237 37.5 7.5ZM30 12C30 12 20.0958 16.1915 18 12C16.9521 9.90423 18 6 18 6H30V12Z" fill="#05EEF4"/>
</g>
<defs>
<clipPath id="clip0_158_962">
<rect width="48" height="48" fill="white"/>
</clipPath>
</defs>
</svg>
