<svg width="32" height="27" viewBox="0 0 32 27" fill="none" xmlns="http://www.w3.org/2000/svg">
<path fill-rule="evenodd" clip-rule="evenodd" d="M10.3243 23.106C10.8423 23.683 11.5073 24 12.1973 24H12.1983C12.8913 24 13.5593 23.683 14.0783 23.105C14.3563 22.798 14.8303 22.773 15.1373 23.05C15.4453 23.327 15.4703 23.802 15.1933 24.109C14.3853 25.006 13.3223 25.5 12.1983 25.5H12.1963C11.0753 25.499 10.0143 25.005 9.20929 24.108C8.93229 23.801 8.95729 23.326 9.26529 23.05C9.57329 22.772 10.0473 22.797 10.3243 23.106ZM12.2471 4C16.6921 4 19.6781 7.462 19.6781 10.695C19.6781 12.358 20.1011 13.063 20.5501 13.811C20.9941 14.549 21.4971 15.387 21.4971 16.971C21.1481 21.018 16.9231 21.348 12.2471 21.348C7.57109 21.348 3.34509 21.018 3.00007 17.035C2.99709 15.387 3.50009 14.549 3.94409 13.811L4.10083 13.5472C4.48676 12.8839 4.81609 12.1624 4.81609 10.695C4.81609 7.462 7.80209 4 12.2471 4ZM12.2471 5.5C8.75209 5.5 6.31609 8.238 6.31609 10.695C6.31609 12.774 5.73909 13.735 5.22909 14.583C4.82009 15.264 4.49709 15.802 4.49709 16.971C4.66409 18.857 5.90909 19.848 12.2471 19.848C18.5501 19.848 19.8341 18.813 20.0001 16.906C19.9971 15.802 19.6741 15.264 19.2651 14.583C18.7551 13.735 18.1781 12.774 18.1781 10.695C18.1781 8.238 15.7421 5.5 12.2471 5.5Z" fill="white" fill-opacity="0.5"/>
<circle cx="28.5" cy="3.5" r="3.5" fill="#F495FB"/>
</svg>
