<svg width="37" height="37" viewBox="0 0 37 37" fill="none" xmlns="http://www.w3.org/2000/svg">
<rect width="37" height="37" rx="5" fill="white"/>
<path d="M16.5 13C16.5 13.6412 16.9022 14.1884 17.4682 14.403C17.8174 14.488 18.1822 14.488 18.5315 14.4031C19.0975 14.1886 19.5 13.6413 19.5 13C19.5 12.1716 18.8284 11.5 18 11.5C17.1715 11.5 16.5 12.1716 16.5 13ZM15.0262 13.3988C15.0089 13.2683 15 13.1352 15 13C15 11.3432 16.3431 10 18 10C19.6568 10 21 11.3432 21 13C21 13.1352 20.991 13.2683 20.9737 13.3988L23.8502 12.1778C24.9933 11.6926 26.318 12.2222 26.8116 13.3618C27.3069 14.5053 26.7776 15.8291 25.6306 16.316L22.0025 17.856V21.5732L23.8768 27.0167C24.2814 28.1916 23.6569 29.4721 22.4819 29.8766C21.307 30.2812 20.0266 29.6567 19.622 28.4818L18.0001 23.7715L16.3783 28.4815C15.9738 29.6565 14.6933 30.281 13.5184 29.8764C12.3434 29.4719 11.7189 28.1914 12.1235 27.0165L14.0025 21.5595V17.8581L10.3695 16.316C9.22242 15.8291 8.69318 14.5053 9.18846 13.3618C9.68204 12.2222 11.0068 11.6926 12.1499 12.1778L15.0262 13.3988ZM17.022 15.837C16.8569 15.7924 16.6941 15.7363 16.5348 15.6687L11.5638 13.5586C11.1793 13.3954 10.7309 13.5746 10.5649 13.9579C10.4006 14.3373 10.575 14.7737 10.9556 14.9352L14.7409 16.542C15.2026 16.738 15.5025 17.191 15.5025 17.6926V21.6014C15.5025 21.7399 15.4795 21.8774 15.4344 22.0083L13.5418 27.5048C13.4069 27.8965 13.6151 28.3233 14.0067 28.4581C14.3984 28.593 14.8252 28.3848 14.96 27.9932L17.0684 21.8702C17.3739 20.9821 18.6275 20.9856 18.9318 21.8699L21.0403 27.9934C21.1751 28.3851 21.6019 28.5932 21.9936 28.4584C22.3852 28.3235 22.5934 27.8967 22.4585 27.5051L20.5706 22.022C20.5255 21.891 20.5025 21.7535 20.5025 21.615V17.6905C20.5025 17.1889 20.8023 16.7359 21.2641 16.5399L25.0445 14.9352C25.425 14.7737 25.5995 14.3373 25.4352 13.9579C25.2691 13.5746 24.8208 13.3954 24.4362 13.5586L19.4653 15.6687C19.3057 15.7364 19.1427 15.7925 18.9773 15.8372C18.671 15.9427 18.3422 16 18 16C17.6575 16 17.3285 15.9426 17.022 15.837Z" fill="#05086A"/>
</svg>
