<svg width="21" height="21" viewBox="0 0 21 21" fill="none" xmlns="http://www.w3.org/2000/svg">
<path fill-rule="evenodd" clip-rule="evenodd" d="M5.39101 11.184C8.76014 11.184 8.91001 12.3266 8.91001 14.703C8.91001 15.8937 8.91001 16.7407 8.4099 17.3609C7.83444 18.0754 6.78702 18.222 5.39101 18.222C3.995 18.222 2.94758 18.0754 2.37212 17.3609C1.87201 16.7407 1.87201 15.8945 1.87201 14.7237L2.49301 14.703H1.87201C1.87201 12.3266 2.02188 11.184 5.39101 11.184ZM14.499 11.184C17.8681 11.184 18.018 12.3266 18.018 14.703C18.018 15.8937 18.018 16.7407 17.5179 17.3609C16.9424 18.0754 15.895 18.222 14.499 18.222C13.103 18.222 12.0556 18.0754 11.4801 17.3609C10.98 16.7407 10.98 15.8945 10.98 14.7237L11.601 14.703H10.98C10.98 12.3266 11.1299 11.184 14.499 11.184ZM5.56171 12.4264L5.39101 12.426C3.23078 12.426 3.12 12.581 3.11432 14.3942L3.11466 15.1006C3.11859 15.8217 3.14606 16.3427 3.3384 16.5826C3.55782 16.8541 4.20945 16.98 5.39101 16.98C6.57257 16.98 7.2242 16.8533 7.44362 16.5817C7.66801 16.3027 7.66801 15.6403 7.66801 14.7229C7.66801 12.6527 7.66801 12.4361 5.56171 12.4264ZM14.6697 12.4264L14.499 12.426C12.3388 12.426 12.228 12.581 12.2223 14.3942L12.2227 15.1006C12.2266 15.8217 12.2541 16.3427 12.4464 16.5826C12.6658 16.8541 13.3175 16.98 14.499 16.98C15.6806 16.98 16.3322 16.8533 16.5516 16.5817C16.776 16.3027 16.776 15.6403 16.776 14.7229C16.776 12.6527 16.776 12.4361 14.6697 12.4264ZM5.39101 2.076C8.76014 2.076 8.91001 3.21864 8.91001 5.595C8.91001 6.78566 8.91001 7.63271 8.4099 8.25288C7.83444 8.96744 6.78702 9.114 5.39101 9.114C3.995 9.114 2.94758 8.96744 2.37212 8.25288C1.87201 7.63271 1.87201 6.78649 1.87201 5.6157L2.49301 5.595H1.87201C1.87201 3.21864 2.02188 2.076 5.39101 2.076ZM14.499 2.076C17.8681 2.076 18.018 3.21864 18.018 5.595C18.018 6.78566 18.018 7.63271 17.5179 8.25288C16.9424 8.96744 15.895 9.114 14.499 9.114C13.103 9.114 12.0556 8.96744 11.4801 8.25288C10.98 7.63271 10.98 6.78649 10.98 5.6157L11.601 5.595H10.98C10.98 3.21864 11.1299 2.076 14.499 2.076ZM5.56171 3.31837L5.39101 3.318C3.23078 3.318 3.12 3.47301 3.11432 5.2862L3.11466 5.99259C3.11859 6.71375 3.14606 7.23468 3.3384 7.47456C3.55782 7.74614 4.20945 7.872 5.39101 7.872C6.57257 7.872 7.2242 7.74532 7.44362 7.47373C7.66801 7.1947 7.66801 6.5323 7.66801 5.61487C7.66801 3.5447 7.66801 3.32812 5.56171 3.31837ZM14.6697 3.31837L14.499 3.318C12.3388 3.318 12.228 3.47301 12.2223 5.2862L12.2227 5.99259C12.2266 6.71375 12.2541 7.23468 12.4464 7.47456C12.6658 7.74614 13.3175 7.872 14.499 7.872C15.6806 7.872 16.3322 7.74532 16.5516 7.47373C16.776 7.1947 16.776 6.5323 16.776 5.61487C16.776 3.5447 16.776 3.32812 14.6697 3.31837Z" fill="white"/>
</svg>
