<svg width="58" height="58" viewBox="0 0 58 58" fill="none" xmlns="http://www.w3.org/2000/svg">
<path d="M43.1545 22.2333C41.3566 20.4175 38.9128 19.3875 36.3576 19.3684C33.8024 19.3494 31.3435 20.3428 29.5187 22.1315C27.6939 23.9203 26.6515 26.3588 26.6195 28.9139C26.5876 31.469 27.5686 33.9328 29.3481 35.7666M43.1545 22.2333C44.934 24.0672 45.915 26.531 45.883 29.0861C45.8511 31.6412 44.8087 34.0797 42.9839 35.8684C41.159 37.6572 38.7002 38.6506 36.145 38.6315C33.5897 38.6125 31.146 37.5824 29.3481 35.7666M43.1545 22.2333L29.3457 35.7666" stroke="#891C23" stroke-width="1.5" stroke-linecap="round" stroke-linejoin="round"/>
<path d="M45.9167 14.5V12.0833C45.9167 10.8015 45.4075 9.57208 44.5011 8.66565C43.5946 7.75922 42.3653 7.25 41.0834 7.25H16.9167C15.6348 7.25 14.4055 7.75922 13.499 8.66565C12.5926 9.57208 12.0834 10.8015 12.0834 12.0833V45.9167C12.0834 47.1985 12.5926 48.4279 13.499 49.3343C14.4055 50.2408 15.6348 50.75 16.9167 50.75H41.0834C42.3653 50.75 43.5946 50.2408 44.5011 49.3343C45.4075 48.4279 45.9167 47.1985 45.9167 45.9167V43.5" stroke="#891C23" stroke-width="1.5" stroke-linecap="round" stroke-linejoin="round"/>
</svg>
