<svg width="21" height="21" viewBox="0 0 21 21" fill="none" xmlns="http://www.w3.org/2000/svg">
<path fill-rule="evenodd" clip-rule="evenodd" d="M8.158 12.0564C10.8565 12.0564 14.4442 12.3603 14.4442 14.9892C14.4442 17.7584 10.2637 17.9246 8.47049 17.9346L7.81943 17.9346C5.90745 17.9247 1.87183 17.7594 1.87183 15.0057C1.87183 12.2334 6.05231 12.067 7.84551 12.057L8.06095 12.0564C8.09453 12.0564 8.1269 12.0564 8.158 12.0564ZM8.158 13.2984C5.85699 13.2984 3.11383 13.594 3.11383 15.0057C3.11383 16.1252 4.81123 16.6932 8.158 16.6932C11.5048 16.6932 13.2022 16.1194 13.2022 14.9892C13.2022 13.8672 11.5048 13.2984 8.158 13.2984ZM15.705 11.6696C17.9455 12.005 18.415 13.0425 18.415 13.8531C18.415 14.4567 18.1542 15.2739 16.9097 15.7451C16.8377 15.7724 16.7632 15.7856 16.6895 15.7856C16.4386 15.7856 16.2026 15.6325 16.109 15.3849C15.9873 15.0644 16.1488 14.7051 16.4692 14.5842C17.173 14.3176 17.173 13.9922 17.173 13.8531C17.173 13.3836 16.6174 13.0623 15.522 12.8992C15.1825 12.8479 14.9482 12.5316 14.9987 12.1929C15.05 11.8535 15.3721 11.6258 15.705 11.6696ZM8.158 2.15601C10.5021 2.15601 12.4098 4.06372 12.4098 6.40779C12.4148 7.53718 11.9767 8.60364 11.1785 9.4068C10.382 10.2108 9.31803 10.6554 8.18615 10.6596H8.158C5.81311 10.6596 3.90539 8.75185 3.90539 6.40779C3.90539 4.06372 5.81311 2.15601 8.158 2.15601ZM14.0265 3.08651C15.6536 3.35313 16.8343 4.745 16.8343 6.3952C16.831 8.05534 15.5915 9.48116 13.9504 9.71134C13.9214 9.71548 13.8924 9.71714 13.8634 9.71714C13.5587 9.71714 13.2929 9.49275 13.249 9.18225C13.2018 8.84277 13.4378 8.52813 13.7773 8.48093C14.8107 8.33603 15.5906 7.43931 15.5923 6.39437C15.5923 5.35606 14.8487 4.48004 13.8262 4.31278C13.4875 4.25648 13.2582 3.9377 13.3136 3.59904C13.3691 3.26039 13.6895 3.03269 14.0265 3.08651ZM8.158 3.39801C6.49786 3.39801 5.14739 4.74847 5.14739 6.40779C5.14739 8.0671 6.49786 9.41757 8.158 9.41757H8.18367C8.98186 9.41425 9.73369 9.10044 10.2976 8.53161C10.8623 7.96443 11.1711 7.21012 11.1678 6.41027C11.1678 4.74847 9.81731 3.39801 8.158 3.39801Z" fill="white" fill-opacity="0.5"/>
</svg>
