<svg width="32" height="31" viewBox="0 0 32 31" fill="none" xmlns="http://www.w3.org/2000/svg">
<path d="M26.8403 17.6375C25.8533 18.6815 25.2073 20.7045 25.4023 22.1305L26.2943 28.5715C26.4913 29.9985 25.5933 30.6585 24.2983 30.0405L18.4473 27.2445C17.1523 26.6245 15.0393 26.6335 13.7473 27.2625L7.92125 30.1045C6.63025 30.7335 5.72825 30.0785 5.91425 28.6525L6.75725 22.2035C6.94325 20.7765 6.28225 18.7595 5.28725 17.7225L0.793251 13.0345C-0.202749 11.9975 0.138251 10.9325 1.54825 10.6695L7.91825 9.48151C9.32825 9.21851 11.0343 7.96351 11.7113 6.69251L14.7622 0.955505C15.4373 -0.315495 16.5513 -0.318495 17.2353 0.946505L20.3303 6.65951C21.0163 7.92451 22.7303 9.1665 24.1443 9.41751L30.5223 10.5585C31.9343 10.8105 32.2833 11.8725 31.2963 12.9175L26.8403 17.6375Z" fill="#FFAC33"/>
</svg>
