<svg width="119" height="34" viewBox="0 0 119 34" fill="none" xmlns="http://www.w3.org/2000/svg">
<path fill-rule="evenodd" clip-rule="evenodd" d="M0 5.77277C0 3.15651 3.27806 1.98044 4.94125 4C9.8825 10 27.6175 7.42857 37.5 5.71429C47.3825 4 49.4125 3.14286 59.295 0.571429C69.1775 -2 79.06 8.28572 88.9425 10.8571C98.825 13.4286 108.707 8.28572 113.649 5.71429C115.899 4.54309 118.59 6.17608 118.59 8.71316V29.0587C118.59 31.7877 116.378 34 113.649 34C108.707 34 98.825 34 88.9425 34C79.06 34 69.1775 34 59.295 34C49.4125 34 39.53 34 29.6475 34C19.765 34 9.8825 34 4.94125 34C2.21227 34 0 31.7877 0 29.0588V5.77277Z" fill="url(#paint0_linear_43_83)"/>
<defs>
<linearGradient id="paint0_linear_43_83" x1="59.1846" y1="32.1695" x2="59.1846" y2="2.72882" gradientUnits="userSpaceOnUse">
<stop offset="0.301767" stop-color="#14B8A6"/>
<stop offset="1" stop-color="#8B5CF6"/>
</linearGradient>
</defs>
</svg>
