<svg width="30" height="31" viewBox="0 0 30 31" fill="none" xmlns="http://www.w3.org/2000/svg">
<path d="M30 27.1667C30 29.0075 28.5075 30.5 26.6667 30.5H3.33333C1.4925 30.5 0 29.0075 0 27.1667V3.83333C0 1.9925 1.4925 0.5 3.33333 0.5H26.6667C28.5075 0.5 30 1.9925 30 3.83333V27.1667Z" fill="#3B88C3"/>
<path d="M14.865 15.6759C14.4419 14.688 13.3296 12.3306 11.7591 10.6607C11.0368 9.89273 10.8334 8.63763 10.8334 7.58335C10.8334 5.97169 9.71336 4.66669 8.33336 4.66669C6.95253 4.66669 5.83336 5.97169 5.83336 7.58335C5.83336 8.63831 5.62976 9.89359 4.90712 10.6622C3.33691 12.3322 2.22475 14.6898 1.80169 15.6775C1.43919 16.5225 1.83086 17.5017 2.67586 17.865C2.89003 17.9559 3.11253 18 3.33253 18C3.97836 18 4.59336 17.6217 4.86503 16.9909C4.89528 16.9199 5.00003 16.9425 5.00003 17.0196V26.75C5.00003 27.44 5.55919 28 6.25003 28C6.94086 28 7.50003 27.44 7.50003 26.75V20.5C7.50003 20.0392 7.87336 19.6667 8.33336 19.6667C8.79336 19.6667 9.16669 20.0392 9.16669 20.5V26.75C9.16669 27.44 9.72669 28 10.4167 28C11.1067 28 11.6667 27.44 11.6667 26.75V17.0198C11.6667 16.9425 11.7709 16.92 11.8017 16.9909C12.1659 17.8359 13.145 18.2267 13.9909 17.8642C14.8359 17.5 15.2275 16.5225 14.865 15.6759ZM25.83 17.2709C26.0775 17.5592 26.4275 17.7067 26.78 17.7067C27.0675 17.7067 27.3567 17.6075 27.5934 17.4059C28.1175 16.9567 28.1775 16.1675 27.7284 15.6434L24.3839 11.7409C23.6167 10.8457 23.862 9.4106 24.099 8.25559C24.1432 8.04009 24.1667 7.81507 24.1667 7.58335C24.1667 5.97169 23.0467 4.66669 21.6667 4.66669C20.2859 4.66669 19.1667 5.97252 19.1667 7.58335C19.1667 7.79965 19.1871 8.00999 19.2257 8.21215C19.4604 9.44061 19.7474 11.0191 18.913 11.9508L15.735 15.4992C15.275 16.0134 15.3184 16.8042 15.8325 17.2642C16.3475 17.725 17.1384 17.68 17.5975 17.1667L18.1467 16.5834C18.5131 16.1942 19.1667 16.4535 19.1667 16.988C19.1667 17.1045 19.1322 17.2184 19.0676 17.3154L16.7367 20.8117C16.3506 21.3909 16.7657 22.1667 17.4618 22.1667C17.9432 22.1667 18.3334 22.5569 18.3334 23.0382V26.75C18.3334 27.44 18.8925 28 19.5834 28C20.2742 28 20.8334 27.44 20.8334 26.75V23C20.8334 22.5398 21.2065 22.1667 21.6667 22.1667C22.1269 22.1667 22.5 22.5398 22.5 23V26.75C22.5 27.44 23.06 28 23.75 28C24.44 28 25 27.44 25 26.75V23.0382C25 22.5569 25.3902 22.1667 25.8716 22.1667C26.5676 22.1667 26.9828 21.3909 26.5967 20.8117L24.2657 17.3152C24.2011 17.2183 24.1667 17.1046 24.1667 16.9883C24.1667 16.4543 24.82 16.1956 25.1856 16.5848L25.83 17.2709Z" fill="white"/>
</svg>
