<svg width="28" height="28" viewBox="0 0 28 28" fill="none" xmlns="http://www.w3.org/2000/svg">
<path d="M12.4688 21.6836C12.4688 21.2775 12.6301 20.888 12.9172 20.6008C13.2044 20.3137 13.5939 20.1523 14 20.1523C14.4061 20.1523 14.7956 20.3137 15.0828 20.6008C15.3699 20.888 15.5312 21.2775 15.5312 21.6836C15.5312 22.0897 15.3699 22.4792 15.0828 22.7664C14.7956 23.0535 14.4061 23.2148 14 23.2148C13.5939 23.2148 13.2044 23.0535 12.9172 22.7664C12.6301 22.4792 12.4688 22.0897 12.4688 21.6836ZM12.4688 14.0273C12.4688 13.6212 12.6301 13.2318 12.9172 12.9446C13.2044 12.6574 13.5939 12.4961 14 12.4961C14.4061 12.4961 14.7956 12.6574 15.0828 12.9446C15.3699 13.2318 15.5312 13.6212 15.5312 14.0273C15.5312 14.4335 15.3699 14.8229 15.0828 15.1101C14.7956 15.3973 14.4061 15.5586 14 15.5586C13.5939 15.5586 13.2044 15.3973 12.9172 15.1101C12.6301 14.8229 12.4688 14.4335 12.4688 14.0273ZM12.4688 6.37109C12.4688 5.96498 12.6301 5.5755 12.9172 5.28834C13.2044 5.00117 13.5939 4.83984 14 4.83984C14.4061 4.83984 14.7956 5.00117 15.0828 5.28834C15.3699 5.5755 15.5312 5.96498 15.5312 6.37109C15.5312 6.77721 15.3699 7.16669 15.0828 7.45385C14.7956 7.74102 14.4061 7.90234 14 7.90234C13.5939 7.90234 13.2044 7.74102 12.9172 7.45385C12.6301 7.16669 12.4688 6.77721 12.4688 6.37109Z" fill="white"/>
</svg>
