<svg width="60" height="60" viewBox="0 0 60 60" fill="none" xmlns="http://www.w3.org/2000/svg">
<path d="M31.75 7C30.75 6 29.25 6 28.25 7L13.25 22C12.25 23 12.25 24.5 13.25 25.5C13.75 26 14.375 26.25 15 26.25C15.625 26.25 16.25 26 16.75 25.5L31.75 10.5C32.75 9.5 32.75 8 31.75 7Z" fill="#2E7D32"/>
<path d="M46.75 22L31.75 7C30.75 6 29.25 6 28.25 7C27.25 8 27.25 9.5 28.25 10.5L43.25 25.5C43.75 26 44.375 26.25 45 26.25C45.625 26.25 46.25 26 46.75 25.5C47.75 24.5 47.75 23 46.75 22Z" fill="#1B5E20"/>
<path d="M46.75 51.25H13.25C12 51.25 11 50.375 10.75 49.25L6.25 26.25H53.75L49.125 49.25C48.875 50.375 47.875 51.25 46.75 51.25Z" fill="#388E3C"/>
<path d="M53.75 28.75H6.25C4.875 28.75 3.75 27.625 3.75 26.25V23.75C3.75 22.375 4.875 21.25 6.25 21.25H53.75C55.125 21.25 56.25 22.375 56.25 23.75V26.25C56.25 27.625 55.125 28.75 53.75 28.75Z" fill="#4CAF50"/>
<path d="M38.5 31C33.7087 28.3948 28.625 40.875 28.625 40.875L24 36.125L21.25 38.875L28.625 46.25L41.25 33.625C41.25 33.625 39.8043 31.7092 38.5 31Z" fill="#DCEDC8"/>
</svg>
