
<svg width="43" height="43" viewBox="0 0 43 43" fill="none" xmlns="http://www.w3.org/2000/svg">
<g filter="url(#filter0_d_158_2053)">
<path d="M42.9583 19.1766C42.7204 12.3181 40.9212 6.79528 36.855 3.7799C32.7888 0.764527 26.6788 -0.279567 19.0019 0.0845894C15.5095 0.252558 12.3665 0.708089 9.81201 1.72934C7.18094 2.78553 5.14382 4.27709 3.6536 6.34915C0.65838 10.5134 -0.26612 16.8049 0.0630983 24.049C0.377536 30.929 2.15532 36.3739 6.27122 39.3409C10.3656 42.2945 17.0145 43.2324 24.0275 42.9314C30.8309 42.6438 36.3591 40.8459 39.3194 36.7233C42.273 32.6074 43.2109 26.5403 42.9583 19.1779V19.1766ZM11.8276 26.4624H10.9394V24.5583H11.8276C13.5208 24.5583 14.7597 23.2495 14.7597 21.6262C14.7599 21.2412 14.6841 20.8598 14.5369 20.504C14.3896 20.1482 14.1736 19.8249 13.9013 19.5526C13.629 19.2803 13.3057 19.0643 12.9499 18.917C12.5941 18.7697 12.2127 18.694 11.8276 18.6942H8.96544C8.91491 18.6942 8.86573 18.7105 8.82528 18.7408C8.78482 18.7711 8.75527 18.8137 8.74104 18.8622V29.2547H6.89338V18.8622C6.89338 17.7213 7.8246 16.7901 8.96544 16.7901H11.8276C14.5017 16.7901 16.7122 18.9602 16.7122 21.6262C16.7122 24.3003 14.6482 26.4624 11.8276 26.4624ZM27.4205 26.4624H25.5513V21.4865C25.5097 20.0796 24.0181 18.6794 22.4298 18.6794C20.6453 18.6794 19.3365 20.2046 19.3365 21.6262C19.3365 23.6486 20.7568 24.5731 22.4298 24.5731H23.095V26.4624H22.4298C19.6792 26.4624 17.4391 24.6981 17.4391 21.6262C17.4391 19.1282 19.6792 16.7901 22.4298 16.7901C24.9211 16.7901 27.3426 18.8823 27.4205 21.4865V26.4624ZM29.7936 17.1112L32.2298 22.1087L31.1736 24.2573L27.6812 17.1112H29.7936ZM32.0538 29.5974H29.9333L36.0716 17.1112H38.192L32.0538 29.5974Z" fill="white"/>
</g>
<defs>
<filter id="filter0_d_158_2053" x="-4" y="0.0151367" width="50.9976" height="50.9697" filterUnits="userSpaceOnUse" color-interpolation-filters="sRGB">
<feFlood flood-opacity="0" result="BackgroundImageFix"/>
<feColorMatrix in="SourceAlpha" type="matrix" values="0 0 0 0 0 0 0 0 0 0 0 0 0 0 0 0 0 0 127 0" result="hardAlpha"/>
<feOffset dy="4"/>
<feGaussianBlur stdDeviation="2"/>
<feComposite in2="hardAlpha" operator="out"/>
<feColorMatrix type="matrix" values="0 0 0 0 0 0 0 0 0 0 0 0 0 0 0 0 0 0 0.25 0"/>
<feBlend mode="normal" in2="BackgroundImageFix" result="effect1_dropShadow_158_2053"/>
<feBlend mode="normal" in="SourceGraphic" in2="effect1_dropShadow_158_2053" result="shape"/>
</filter>
</defs>

</svg>
