<svg width="21" height="21" viewBox="0 0 21 21" fill="none" xmlns="http://www.w3.org/2000/svg">
<path fill-rule="evenodd" clip-rule="evenodd" d="M13.3884 2.616C15.9917 2.616 17.7404 4.39868 17.7404 7.05159V14.6659C17.7404 17.342 16.0455 19.0824 13.4224 19.099L7.05256 19.1015C4.44933 19.1015 2.69977 17.3188 2.69977 14.6659V7.05159C2.69977 4.37467 4.39468 2.63504 7.01779 2.61931L13.3876 2.616H13.3884ZM13.3884 3.858L7.02193 3.86131C5.09434 3.8729 3.94177 5.06522 3.94177 7.05159V14.6659C3.94177 16.6655 5.10511 17.8595 7.05174 17.8595L13.4182 17.857C15.3458 17.8454 16.4984 16.6514 16.4984 14.6659V7.05159C16.4984 5.05197 15.3359 3.858 13.3884 3.858ZM13.2287 13.7722C13.5715 13.7722 13.8497 14.0504 13.8497 14.3932C13.8497 14.736 13.5715 15.0142 13.2287 15.0142H7.25054C6.90775 15.0142 6.62954 14.736 6.62954 14.3932C6.62954 14.0504 6.90775 13.7722 7.25054 13.7722H13.2287ZM13.2287 10.3058C13.5715 10.3058 13.8497 10.584 13.8497 10.9268C13.8497 11.2696 13.5715 11.5478 13.2287 11.5478H7.25054C6.90775 11.5478 6.62954 11.2696 6.62954 10.9268C6.62954 10.584 6.90775 10.3058 7.25054 10.3058H13.2287ZM9.53143 6.84741C9.87422 6.84741 10.1524 7.12562 10.1524 7.46841C10.1524 7.8112 9.87422 8.08941 9.53143 8.08941H7.25029C6.9075 8.08941 6.62929 7.8112 6.62929 7.46841C6.62929 7.12562 6.9075 6.84741 7.25029 6.84741H9.53143Z" fill="white" fill-opacity="0.5"/>
</svg>
