<svg width="54" height="54" viewBox="0 0 54 54" fill="none" xmlns="http://www.w3.org/2000/svg">
<path d="M38.25 49.5C35.1375 49.5 32.4848 48.4035 30.2917 46.2105C28.0972 44.016 27 41.3625 27 38.25C27 35.1375 28.0972 32.484 30.2917 30.2895C32.4848 28.0965 35.1375 27 38.25 27C41.3625 27 44.016 28.0965 46.2105 30.2895C48.4035 32.484 49.5 35.1375 49.5 38.25C49.5 41.3625 48.4035 44.016 46.2105 46.2105C44.016 48.4035 41.3625 49.5 38.25 49.5ZM42.0187 43.5938L43.5938 42.0187L39.375 37.8V31.5H37.125V38.7L42.0187 43.5938ZM6.75 47.25V6.75H20.6438C21.0563 5.4375 21.8625 4.359 23.0625 3.5145C24.2625 2.6715 25.575 2.25 27 2.25C28.5 2.25 29.841 2.6715 31.023 3.5145C32.2035 4.359 33 5.4375 33.4125 6.75H47.25V25.3125C46.575 24.825 45.8625 24.4125 45.1125 24.075C44.3625 23.7375 43.575 23.4375 42.75 23.175V11.25H38.25V18H15.75V11.25H11.25V42.75H23.175C23.4375 43.575 23.7375 44.3625 24.075 45.1125C24.4125 45.8625 24.825 46.575 25.3125 47.25H6.75ZM27 11.25C27.6375 11.25 28.1723 11.034 28.6042 10.602C29.0347 10.1715 29.25 9.6375 29.25 9C29.25 8.3625 29.0347 7.82775 28.6042 7.39575C28.1723 6.96525 27.6375 6.75 27 6.75C26.3625 6.75 25.8285 6.96525 25.398 7.39575C24.966 7.82775 24.75 8.3625 24.75 9C24.75 9.6375 24.966 10.1715 25.398 10.602C25.8285 11.034 26.3625 11.25 27 11.25Z" fill="#F9AA4B"/>
</svg>
