<svg width="46" height="46" viewBox="0 0 46 46" fill="none" xmlns="http://www.w3.org/2000/svg">
<path d="M19.5359 6C21.0755 3.33334 24.9245 3.33333 26.4641 6L39.4545 28.5C40.9941 31.1667 39.0696 34.5 35.9904 34.5H10.0096C6.93042 34.5 5.00592 31.1667 6.54552 28.5L19.5359 6Z" fill="white"/>
<path d="M21.625 14.5227C21.625 14.143 21.3172 13.8352 20.9375 13.8352C20.5578 13.8352 20.25 14.143 20.25 14.5227V15.2121C20.25 15.7919 20.4294 16.3297 20.7357 16.7732C19.4589 17.2123 18.5221 18.3823 18.425 19.7834H18.1989L18.1904 19.7834C17.0513 19.7787 16.1317 18.8515 16.1364 17.7124L16.1421 16.3506C16.1436 15.9709 15.8371 15.6618 15.4574 15.6603C15.0777 15.6587 14.7686 15.9652 14.7671 16.3449L14.7614 17.7067C14.7536 19.6052 16.2862 21.1505 18.1847 21.1584L18.1989 21.1584H18.4167V22.5423H14.5208C14.1411 22.5423 13.8333 22.8501 13.8333 23.2298C13.8333 23.6095 14.1411 23.9173 14.5208 23.9173H18.4167V25.7436H18.1989H18.1847C16.2862 25.7515 14.7536 27.2969 14.7614 29.1953L14.7671 30.5571C14.7686 30.9368 15.0777 31.2433 15.4574 31.2417C15.8371 31.2402 16.1436 30.9311 16.1421 30.5514L16.1364 29.1896C16.1317 28.0506 17.0513 27.1233 18.1904 27.1186H18.1989H18.6241C19.2059 28.982 20.945 30.3344 23 30.3344C25.055 30.3344 26.7942 28.982 27.3759 27.1186H27.801H27.8096C28.9487 27.1233 29.8683 28.0506 29.8635 29.1896L29.858 30.5514C29.8564 30.9311 30.1629 31.2402 30.5426 31.2417C30.9223 31.2433 31.2314 30.9368 31.233 30.5571L31.2385 29.1953C31.2464 27.2969 29.7138 25.7515 27.8153 25.7436H27.801H27.5833V23.9173H31.4805C31.8601 23.9173 32.168 23.6095 32.168 23.2298C32.168 22.8501 31.8601 22.5423 31.4805 22.5423H27.5833V21.1584H27.801L27.8153 21.1584C29.7138 21.1505 31.2464 19.6052 31.2385 17.7067L31.233 16.3449C31.2314 15.9652 30.9223 15.6587 30.5426 15.6603C30.1629 15.6618 29.8564 15.9709 29.858 16.3506L29.8635 17.7124C29.8683 18.8515 28.9487 19.7787 27.8096 19.7834L27.801 19.7834H27.575C27.4778 18.3823 26.5411 17.2123 25.2643 16.7732C25.5706 16.3298 25.75 15.7919 25.75 15.2121V14.5227C25.75 14.143 25.4422 13.8352 25.0625 13.8352C24.6828 13.8352 24.375 14.143 24.375 14.5227V15.2121C24.375 15.9715 23.7594 16.5871 23 16.5871C22.2406 16.5871 21.625 15.9715 21.625 15.2121V14.5227ZM19.7917 20.0247C19.7917 18.8856 20.7151 17.9622 21.8542 17.9622H24.1458C25.2849 17.9622 26.2083 18.8856 26.2083 20.0247V25.7511C26.2083 27.523 24.7719 28.9594 23 28.9594C21.2281 28.9594 19.7917 27.523 19.7917 25.7511V20.0247Z" fill="#F0516D"/>
</svg>
