<svg width="176" height="176" viewBox="0 0 176 176" fill="none" xmlns="http://www.w3.org/2000/svg">
<path d="M125.584 99.7562H112.225V106.525H125.584C127.366 106.525 128.969 107.95 128.969 109.909C128.969 111.869 127.544 113.294 125.584 113.294H42.2218C40.4406 113.294 38.8375 114.719 38.8375 116.678C38.8375 118.459 40.2625 120.062 42.2218 120.062H125.762C131.284 120.062 135.737 115.609 135.737 110.087C135.737 104.209 131.106 99.7562 125.584 99.7562ZM128.078 76.7781L121.487 76.2437C121.487 76.0656 125.584 51.6625 126.475 46.675C127.009 43.825 128.078 35.8094 138.231 35.8094V42.5781C134.134 42.5781 133.6 44.1812 133.244 47.2094C132.175 52.1969 128.078 76.4219 128.078 76.7781Z" fill="#B2C1C0"/>
<path d="M128.434 52.9093H38.125C34.7406 52.9093 34.2062 56.1156 34.7406 57.8968L44.8937 103.141C45.4281 104.922 47.2093 106.347 49.1687 106.347H120.062C121.844 106.347 123.625 104.922 123.981 102.962L131.462 56.1156C131.641 54.5125 130.216 52.9093 128.434 52.9093ZM43.2906 68.05L41.5093 61.2812C41.3312 60.3906 41.8656 59.6781 42.7562 59.6781H55.4031C56.2937 59.6781 57.1843 60.3906 57.1843 61.2812L57.8968 68.05C58.075 68.9406 57.3625 69.6531 56.4718 69.6531H45.25C44.3593 69.6531 43.4687 68.9406 43.2906 68.05ZM48.9906 84.6156C48.1 84.6156 47.2093 83.9031 46.8531 83.0125L45.6062 77.8468C45.4281 76.9562 45.9625 76.2437 46.8531 76.2437H57.0062C57.8968 76.2437 58.7875 76.9562 58.7875 77.8468L59.3218 82.8343C59.5 83.725 58.7875 84.4375 57.8968 84.4375C58.075 84.6156 48.9906 84.6156 48.9906 84.6156ZM59.6781 99.7562H52.7312C51.8406 99.7562 50.95 99.0437 50.5937 98.1531L49.3468 92.9875C49.1687 92.0968 49.7031 91.3843 50.5937 91.3843H58.6093C59.5 91.3843 60.3906 92.0968 60.3906 92.9875L60.925 97.975C61.2812 98.8656 60.5687 99.7562 59.6781 99.7562ZM80.1625 97.975C80.1625 98.8656 79.45 99.5781 78.5593 99.5781H69.8312C68.9406 99.5781 68.05 98.8656 68.05 97.975L67.5156 92.9875C67.3375 92.0968 68.05 91.3843 68.9406 91.3843H78.5593C79.45 91.3843 80.1625 92.0968 80.1625 92.9875V97.975ZM80.1625 83.0125C80.1625 83.9031 79.45 84.6156 78.5593 84.6156H68.2281C67.3375 84.6156 66.4468 83.9031 66.4468 83.0125L65.9125 78.025C65.7343 77.1343 66.4468 76.4218 67.3375 76.4218H78.5593C79.45 76.4218 80.1625 77.1343 80.1625 78.025V83.0125ZM80.1625 68.05C80.1625 68.9406 79.45 69.6531 78.5593 69.6531H66.625C65.7343 69.6531 64.8437 68.9406 64.8437 68.05L63.9531 61.2812C63.775 60.3906 64.4875 59.6781 65.3781 59.6781H78.3812C79.2718 59.6781 79.9843 60.3906 79.9843 61.2812C80.1625 61.2812 80.1625 68.05 80.1625 68.05ZM98.3312 97.975C98.1531 98.8656 97.4406 99.5781 96.55 99.5781H88.7125C87.8218 99.5781 87.1093 98.8656 87.1093 97.975V92.9875C87.1093 92.0968 87.8218 91.3843 88.7125 91.3843H97.4406C98.3312 91.3843 99.0437 92.0968 98.8656 92.9875L98.3312 97.975ZM99.9343 83.0125C99.7562 83.9031 99.0437 84.6156 98.1531 84.6156H88.7125C87.8218 84.6156 87.1093 83.9031 87.1093 83.0125V78.025C87.1093 77.1343 87.8218 76.4218 88.7125 76.4218H99.0437C99.9343 76.4218 100.647 77.1343 100.469 78.025L99.9343 83.0125ZM101.537 68.05C101.359 68.9406 100.647 69.6531 99.7562 69.6531H88.7125C87.8218 69.6531 87.1093 68.9406 87.1093 68.05V61.2812C87.1093 60.3906 87.8218 59.6781 88.7125 59.6781H100.825C101.716 59.6781 102.428 60.3906 102.25 61.2812L101.537 68.05ZM117.034 97.975C116.856 98.8656 115.966 99.5781 115.075 99.5781H106.525C105.634 99.5781 104.922 98.8656 105.1 97.975L105.634 92.9875C105.812 92.0968 106.525 91.3843 107.416 91.3843H116.5C117.391 91.3843 118.103 92.0968 117.925 92.9875L117.034 97.975ZM119.35 83.0125C119.172 83.9031 118.281 84.6156 117.391 84.6156H107.95C107.059 84.6156 106.347 83.9031 106.525 83.0125L107.059 78.025C107.237 77.1343 107.95 76.4218 108.841 76.4218H118.637C119.528 76.4218 120.241 77.1343 120.062 78.025L119.35 83.0125ZM121.666 68.05C121.487 68.9406 120.597 69.6531 119.706 69.6531H109.553C108.662 69.6531 107.95 68.9406 108.128 68.05L108.841 61.2812C109.019 60.3906 109.731 59.6781 110.622 59.6781H121.131C122.022 59.6781 122.734 60.3906 122.556 61.2812L121.666 68.05Z" fill="#891C23"/>
<path d="M52.9094 141.437C58.4184 141.437 62.8844 136.972 62.8844 131.462C62.8844 125.953 58.4184 121.487 52.9094 121.487C47.4003 121.487 42.9344 125.953 42.9344 131.462C42.9344 136.972 47.4003 141.437 52.9094 141.437Z" fill="#62727A"/>
<path d="M52.9093 136.45C55.6639 136.45 57.8968 134.217 57.8968 131.462C57.8968 128.708 55.6639 126.475 52.9093 126.475C50.1548 126.475 47.9218 128.708 47.9218 131.462C47.9218 134.217 50.1548 136.45 52.9093 136.45Z" fill="white"/>
<path d="M113.116 141.437C118.625 141.437 123.091 136.972 123.091 131.462C123.091 125.953 118.625 121.487 113.116 121.487C107.607 121.487 103.141 125.953 103.141 131.462C103.141 136.972 107.607 141.437 113.116 141.437Z" fill="#62727A"/>
<path d="M118.103 131.462C118.103 134.312 115.787 136.45 113.116 136.45C110.266 136.45 108.128 134.134 108.128 131.462C108.128 128.612 110.444 126.475 113.116 126.475C115.787 126.475 118.103 128.612 118.103 131.462Z" fill="white"/>
<path d="M139.834 34.5625H134.847V44.5375H139.834C140.725 44.5375 141.437 43.825 141.437 42.9343V36.1656C141.437 35.275 140.725 34.5625 139.834 34.5625Z" fill="#62727A"/>
<path d="M52.9093 118.103C45.6062 118.103 39.55 124.159 39.55 131.462H66.2687C66.2687 123.981 60.3906 118.103 52.9093 118.103ZM113.116 118.103C105.812 118.103 99.7562 124.159 99.7562 131.462H126.475C126.475 123.981 120.419 118.103 113.116 118.103Z" fill="#891C23"/>
</svg>
