<svg width="10" height="10" viewBox="0 0 10 10" fill="none" xmlns="http://www.w3.org/2000/svg">
<path d="M7.70735 5.46391C7.42656 5.77357 7.24278 6.37359 7.29825 6.79654L7.55202 8.70695C7.60806 9.1302 7.35259 9.32596 6.98418 9.14266L5.31963 8.31336C4.95122 8.12947 4.35009 8.13214 3.98253 8.3187L2.3251 9.16164C1.95782 9.34821 1.70121 9.15393 1.75413 8.73098L1.99395 6.8182C2.04687 6.39495 1.85882 5.7967 1.57575 5.48912L0.297256 4.09866C0.0139052 3.79108 0.110916 3.4752 0.512046 3.39719L2.32424 3.04483C2.72537 2.96683 3.21071 2.59459 3.40331 2.21761L4.27129 0.516009C4.46332 0.139029 4.78024 0.138139 4.97483 0.51334L5.85532 2.20782C6.05048 2.58302 6.5381 2.9514 6.94036 3.02585L8.75484 3.36427C9.15654 3.43902 9.25582 3.75401 8.97503 4.06395L7.70735 5.46391Z" fill="white"/>
</svg>
