<svg width="37" height="37" viewBox="0 0 37 37" fill="none" xmlns="http://www.w3.org/2000/svg">
<rect width="37" height="37" rx="18.5" fill="white"/>
<path d="M13.4995 14.7448C13.8471 14.3623 14.4152 14.0004 15.2499 14.0004C16.4023 14.0004 17.1442 14.7925 17.4045 15.6617C17.6581 16.5083 17.5043 17.5569 16.785 18.2795C16.5378 18.5279 16.2468 18.7526 15.9921 18.9492L15.9514 18.9807C15.6722 19.1965 15.4228 19.3921 15.2029 19.6114C14.9469 19.8668 14.7382 20.1459 14.6165 20.5004H16.75C17.1642 20.5004 17.5 20.8362 17.5 21.2504C17.5 21.6647 17.1642 22.0004 16.75 22.0004H13.7499C13.551 22.0004 13.3603 21.9214 13.2196 21.7808C13.079 21.6401 12.9999 21.4493 12.9999 21.2504C13 20.0035 13.524 19.1674 14.1436 18.5494C14.44 18.2538 14.7618 18.0043 15.0341 17.7939L15.0371 17.7915C15.3231 17.5705 15.545 17.399 15.7218 17.2213C15.9942 16.9478 16.0887 16.4963 15.9676 16.092C15.8532 15.7102 15.5976 15.5004 15.2499 15.5004C14.8972 15.5004 14.7153 15.6372 14.6097 15.7535C14.5504 15.8188 14.5097 15.8852 14.485 15.9336C14.4729 15.9572 14.4656 15.9746 14.4624 15.9825L14.4614 15.9852C14.3324 16.3722 13.9166 16.586 13.5257 16.4635C13.1304 16.3397 12.9104 15.9188 13.0342 15.5236L13.0689 15.4274C13.0875 15.3808 13.1139 15.3202 13.1497 15.2503C13.2206 15.1117 13.3323 14.9288 13.4995 14.7448ZM19.25 14.0005C19.6642 14.0005 20 14.3363 20 14.7505V17.4998H21.5V14.7505C21.5 14.3363 21.8358 14.0005 22.25 14.0005C22.6642 14.0005 23 14.3363 23 14.7505V21.2209C23 21.6351 22.6642 21.9709 22.25 21.9709C21.8358 21.9709 21.5 21.6351 21.5 21.2209V18.9998H19.25C18.8358 18.9998 18.5 18.664 18.5 18.2498V14.7505C18.5 14.3363 18.8358 14.0005 19.25 14.0005ZM28 18.0005C28 12.4776 23.5228 8.00049 18 8.00049C12.4771 8.00049 7.99998 12.4776 7.99998 18.0005C7.99998 23.5233 12.4771 28.0005 18 28.0005C23.5228 28.0005 28 23.5233 28 18.0005ZM9.49998 18.0005C9.49998 13.3061 13.3056 9.50049 18 9.50049C22.6944 9.50049 26.5 13.3061 26.5 18.0005C26.5 22.6949 22.6944 26.5005 18 26.5005C13.3056 26.5005 9.49998 22.6949 9.49998 18.0005Z" fill="#F9AA4B"/>
</svg>
